<mxfile host="app.diagrams.net" modified="2023-06-02T07:29:53.706Z" agent="Mozilla/5.0 (Windows NT 10.0; Win64; x64) AppleWebKit/537.36 (KHTML, like Gecko) Chrome/109.0.0.0 Safari/537.36" version="21.3.3" etag="FsCdz19e9M0FHnkQmppq" type="github">
  <diagram name="第 1 页" id="90wwTyhsXUgiDTEw2NA0">
    <mxGraphModel>
      <root>
        <mxCell id="0" />
        <mxCell id="1" parent="0" />
      </root>
    </mxGraphModel>
  </diagram>
</mxfile>
